<svg width="40" height="40" viewBox="0 0 40 40" fill="none" xmlns="http://www.w3.org/2000/svg">
<rect width="40" height="40" rx="4" fill="white"/>
<path d="M22.9634 8.1877C23.1356 7.97039 23.4516 7.9346 23.668 8.1079L24.7487 8.97351L20.7982 14H23.3419L26.3097 10.2239L28.8142 12.23C29.0353 12.407 29.0653 12.7321 28.8804 12.9466L27.9728 13.9998H30.5869C31.2916 12.9378 31.0861 11.4872 30.0646 10.669L24.9183 6.54691C23.8365 5.6804 22.2562 5.8594 21.3957 6.94591L15.8086 13.9998H18.36L22.9634 8.1877ZM25 23C24.4477 23 24 23.4477 24 24C24 24.5523 24.4477 25 25 25H28C28.5523 25 29 24.5523 29 24C29 23.4477 28.5523 23 28 23H25ZM10 11C8.34315 11 7 12.3431 7 14V28.5004C7 30.9857 9.01472 33.0004 11.5 33.0004H28.5C30.9853 33.0004 33 30.9857 33 28.5004V19.5004C33 17.0152 30.9853 15.0004 28.5 15.0004L10 15C9.44772 15 9 14.5523 9 14C9 13.4477 9.44772 13 10 13H14.58L16.1763 11H10ZM9 28.5004V16.8293C9.31278 16.9398 9.64936 17 10 17H13.4697C13.4798 17.0003 13.4899 17.0004 13.5 17.0004H28.5C29.8807 17.0004 31 18.1197 31 19.5004V28.5004C31 29.8812 29.8807 31.0004 28.5 31.0004H11.5C10.1193 31.0004 9 29.8812 9 28.5004Z" fill="#242424"/>
</svg>
